<svg xmlns="http://www.w3.org/2000/svg" width="960" height="721.957" viewBox="0 0 960 721.957" xmlns:xlink="http://www.w3.org/1999/xlink" role="img" artist="Katerina Limpitsouni" source="https://undraw.co/"><g transform="translate(-587.471 -229.105)"><g transform="translate(1357.374 438.739)"><path d="M945.744,474.805c18.237-28.531,11.284-65.554-8.106-77.948s-55.911-3.16-74.148,25.371c-16.881,26.409-11.3,60.632,4.1,74.836a2.353,2.353,0,0,0-.838.3l-4.511,2.828a2.381,2.381,0,0,0,.026,4.051l9.686,5.9a2.381,2.381,0,0,0,3.612-1.834l.445-5.306a2.357,2.357,0,0,0-.031-.554C895.341,510.581,928.826,501.272,945.744,474.805Z" transform="translate(-853.166 -391.474)" fill="#6c63ff"/><path d="M927.072,414.545a39.184,39.184,0,0,1-23.356,48.237c-2.122.818-1.2,4.273.949,3.444a42.87,42.87,0,0,0,25.85-52.631C929.851,411.4,926.4,412.337,927.072,414.545Z" transform="translate(-843.764 -387.497)" fill="#fff"/></g><path d="M378.174,378.307c18.828-25.2,53.287-31.277,70.411-18.481s21.057,47.566,2.229,72.762c-17.428,23.322-49,29.683-66.393,20.945a2.183,2.183,0,0,1,.01.828l-.98,4.847a2.212,2.212,0,0,1-3.53,1.3l-8.3-6.487a2.212,2.212,0,0,1,.411-3.74l4.466-2.124a2.189,2.189,0,0,1,.491-.154C363.583,433.835,360.708,401.68,378.174,378.307Z" transform="translate(360.26 424.873)" fill="#e6e6e6"/><path d="M416.255,366.835a36.388,36.388,0,0,0-30.476,39.783c.2,2.124-3.117,2.11-3.318,0a39.788,39.788,0,0,1,32.911-42.982C417.461,363.281,418.359,366.478,416.255,366.835Z" transform="translate(363.363 426.831)" fill="#fff"/><path d="M786.284,683.945c14.8-23.15,9.156-53.191-6.577-63.248s-45.367-2.564-60.164,20.586c-13.7,21.428-9.172,49.2,3.326,60.722a1.9,1.9,0,0,0-.68.247l-3.66,2.294a1.932,1.932,0,0,0,.021,3.287l7.859,4.789a1.932,1.932,0,0,0,2.931-1.488l.361-4.305a1.913,1.913,0,0,0-.025-.449C745.387,712.973,772.557,705.42,786.284,683.945Z" transform="translate(452.154 180.921)" fill="#f2f2f2"/><g transform="translate(938.759 459.156)"><path d="M284.429,361.806c15.771,22.851,1.623,53.886-22.356,48.438-27.394-6.225-59.586-17.116-70.668-42.935l-7.643-17.8a48.563,48.563,0,0,1,25.467-63.783h0c24.646-10.58,46.293,10.77,56.874,35.416C290.7,330.8,269.852,333.284,284.429,361.806Z" transform="translate(-133.539 -231.153)" fill="#2f2e41"/><path d="M289.16,257.361l-7.36-12.454a11.7,11.7,0,0,1,6.609-17.128h0a11.7,11.7,0,0,1,15.157,11.553l-.433,13.387,34.589,94.79-18.858,3.938Z" transform="translate(-280.173 -227.255)" fill="#ed9da0"/><path d="M185.127,504.192l9.06,11.279a11.7,11.7,0,0,1-4.1,17.9h0a11.7,11.7,0,0,1-16.646-9.276l-1.48-13.312-47.74-88.9,18.1-6.583Z" transform="translate(5.829 -240.413)" fill="#ed9da0"/><path d="M304.583,603.6l-1.333,16.018-.313,3.737-88.667-8.528a19.55,19.55,0,0,1-15.655-27.406l28.6-61.387,9.877-21.2,42.8-9.877c35.295,27.014,3.54,56.827-36.414,86.986q-2.346,1.778-4.741,3.556Z" transform="translate(-169.597 -245.985)" fill="#090814"/><path d="M193.731,666.847h0a6.37,6.37,0,0,1-5.816-2.249l-29-35.109,1.646-16.462,9.889-5.933a6.5,6.5,0,0,1,9.387,3.187L198.751,658.2a6.37,6.37,0,0,1-5.023,8.646Z" transform="translate(-28.869 -253.765)" fill="#090814"/><path d="M295.736,596.519l-1.646,19.755-88.665-8.53a19.553,19.553,0,0,1-15.663-27.406l23.663-52.96V497.746l57.618-9.877c36.684,28.075.941,59.176-41.152,90.542Z" transform="translate(-152.52 -245.488)" fill="#090814"/><path d="M0,82.31,16.462,65.848v-21.4a24.692,24.692,0,1,1,27.493,1.439c2.35,7.377,8.394,14.146,20.248,19.96L29.632,88.9Z" transform="translate(55.965 69.527)" fill="#ed9da0"/><path d="M288.4,487.678l-64.2,8.231-14.816-69.141c-6.883-18.353-2.934-34.568,9.81-49.048a11,11,0,0,1,10.447-8.835l6.08.264c-.687,21.833,15.4,16.575,39.51-1.646l2.908.873a16.353,16.353,0,0,1,11.478,18.06l-2.655,17.92a122.612,122.612,0,0,1-5.226,20.893C275.161,444.924,277.512,465.75,288.4,487.678Z" transform="translate(-163.297 -237.068)" fill="#6c63ff"/><path d="M218.475,413.958l-29.633,9.877-13.17-47.74,4.462-2.027a16,16,0,0,1,20.726,7.011Z" transform="translate(-63.735 -237.427)" fill="#6c63ff"/><path d="M181.487,249.857l-16.463,18.108L145.27,236.687l24.693-13.17Z" transform="translate(-113.997 -117.773)" fill="#6c63ff"/><path d="M266.654,319.112c-15.517,5.851-32.076,5.245-49.386,0V299.358h49.386Z" transform="translate(-150.601 -232.3)" fill="#2f2e41"/></g><path d="M1102.085,233.949H239.864a12.407,12.407,0,0,0-12.393,12.393V830.6a12.407,12.407,0,0,0,12.393,12.393h862.221a12.407,12.407,0,0,0,12.393-12.393V246.342A12.407,12.407,0,0,0,1102.085,233.949Zm8.852,596.65a8.856,8.856,0,0,1-8.852,8.853H239.864a8.856,8.856,0,0,1-8.852-8.852V246.342a8.856,8.856,0,0,1,8.852-8.852h862.221a8.856,8.856,0,0,1,8.852,8.852Z" transform="translate(360 108.07)" fill="#3f3d56"/><rect width="883.467" height="3.541" transform="translate(589.241 391.663)" fill="#3f3d56"/><circle cx="10.623" cy="10.623" r="10.623" transform="translate(608.716 357.953)" fill="#3f3d56"/><circle cx="10.623" cy="10.623" r="10.623" transform="translate(639.257 357.953)" fill="#3f3d56"/><circle cx="10.623" cy="10.623" r="10.623" transform="translate(669.797 357.953)" fill="#3f3d56"/><path d="M575.246,440.354s15.766-8.87,20.52-12.64-1.5-2.437-1.5-2.437l-19.32,11.9a5.723,5.723,0,1,0,.3,3.177Z" transform="translate(428.859 140.907)" fill="#3f3d56"/><g transform="translate(1013.744 487.549)"><path d="M620.63,391.579a3.4,3.4,0,0,1-.388-.107L586.923,380.1a3.276,3.276,0,0,1-1.158-5.512l26.7-24.53a3.276,3.276,0,0,1,5.438,1.818l6.619,35.907a3.276,3.276,0,0,1-3.892,3.8Z" transform="translate(-584.706 -349.19)" fill="#6c63ff"/><path d="M374.411,202.332l13.684,2.912-.74-4.024-9.524-2.027Z" transform="translate(-353.963 -193.862)" fill="#e6e6e6"/><path d="M372.569,204.028l17.148,3.649.742,4.024-21.309-4.535Z" transform="translate(-354.965 -192.941)" fill="#e6e6e6"/></g><path d="M597.352,334.594l4.366,13.506a1.825,1.825,0,0,0,2.2,1.247,1.8,1.8,0,0,0,1.247-2.2L600.8,333.645a1.825,1.825,0,0,0-2.2-1.247A1.8,1.8,0,0,0,597.352,334.594Z" transform="translate(433.683 131.038)" fill="#090814"/><path d="M615.833,330.585l-4.16,14.141c-.65,2.209,2.8,3.153,3.444.949l4.16-14.141c.65-2.209-2.8-3.153-3.444-.949Z" transform="translate(436.407 130.465)" fill="#090814"/><path d="M629.809,341.347,619.521,351.9c-1.607,1.65,1,4.094,2.6,2.449L632.41,343.8C634.017,342.147,631.412,339.7,629.809,341.347Z" transform="translate(437.822 132.65)" fill="#090814"/><path d="M771.133,635.049a31.794,31.794,0,0,1-18.951,39.14c-1.722.664-.974,3.467.77,2.795a34.785,34.785,0,0,0,20.975-42.7C773.388,632.5,770.59,633.257,771.133,635.049Z" transform="translate(459.782 184.147)" fill="#fff"/><g transform="translate(1444.282 229.105)"><path d="M867.744,237.805c18.237-28.531,11.284-65.554-8.106-77.949s-55.911-3.16-74.148,25.371c-16.881,26.409-11.3,60.632,4.1,74.836a2.351,2.351,0,0,0-.838.3l-4.511,2.828a2.381,2.381,0,0,0,.026,4.051l9.686,5.9a2.381,2.381,0,0,0,3.612-1.834l.445-5.306a2.357,2.357,0,0,0-.031-.554C817.341,273.581,850.826,264.272,867.744,237.805Z" transform="translate(-775.166 -154.474)" fill="#e6e6e6"/><path d="M849.072,177.545a39.184,39.184,0,0,1-23.356,48.237c-2.122.818-1.2,4.273.949,3.444a42.869,42.869,0,0,0,25.85-52.631c-.665-2.194-4.113-1.259-3.444.949Z" transform="translate(-765.764 -150.497)" fill="#fff"/></g><g transform="translate(855.051 356.018)"><path d="M445.85,217.3c-20.269-27.125-57.367-33.671-75.8-19.9s-22.669,51.207-2.4,78.332c18.762,25.108,52.753,31.955,71.476,22.548a2.352,2.352,0,0,0-.011.891l1.056,5.218a2.381,2.381,0,0,0,3.8,1.4l8.938-6.983a2.381,2.381,0,0,0-.443-4.027l-4.808-2.287a2.361,2.361,0,0,0-.529-.166C461.559,277.076,464.653,242.459,445.85,217.3Z" transform="translate(-354.229 -190.407)" fill="#6c63ff"/><path d="M394.154,204.947a39.173,39.173,0,0,1,32.809,42.828c-.218,2.287,3.355,2.272,3.572,0A42.833,42.833,0,0,0,395.1,201.5C392.855,201.121,391.889,204.562,394.154,204.947Z" transform="translate(-346.869 -188.299)" fill="#fff"/></g><path d="M363.114,527.069A56.193,56.193,0,0,1,407.066,553.1c1.331,2.127,3.068,4.465,2.147,7.083a4.657,4.657,0,0,1-4.825,3.223c-2.716-.331-4.468-2.987-4.8-5.533-.38-2.888,1.658-5.155,4.173-6.228,6.146-2.622,12.347,1.43,17.354,4.664,11.408,7.368,23.956,14.032,37.779,14.872,12.79.777,26.5-4.238,33.618-15.329,1.245-1.94-1.846-3.734-3.084-1.8-7.055,11-21.318,14.95-33.719,13.25a65.551,65.551,0,0,1-21.1-7.163c-3.409-1.769-6.714-3.73-9.953-5.791a63.5,63.5,0,0,0-9.762-5.6c-5.693-2.339-13.228-2.156-17.2,3.228-3.71,5.023-.843,13.385,5.362,14.8,5.88,1.338,11.031-4.192,9.821-9.974-.619-2.958-2.846-5.852-4.57-8.27A59.769,59.769,0,0,0,363.114,523.5c-2.3-.114-2.291,3.458,0,3.572Z" transform="translate(385.515 163.234)" fill="#6c63ff"/><path d="M832.292,526.055a56.094,56.094,0,0,1-53.139-.18c-1.846-1.018-3.4-2.179-3.607-4.435a4.638,4.638,0,0,1,2.441-4.64c2.564-1.252,5.615.209,7.218,2.346,1.724,2.3,1.034,5.282-.561,7.447-4.125,5.6-11.924,5.068-18.093,4.944-13.29-.268-27.262.793-39.167,7.249-11.186,6.066-20.17,17.445-20.418,30.536-.044,2.3,3.528,2.3,3.571,0,.245-12.919,10.009-23.566,21.252-28.752a63.914,63.914,0,0,1,22.033-5.185c3.707-.276,7.426-.349,11.143-.3a74.912,74.912,0,0,0,11.117-.237c6.374-.873,13.227-4.979,13.7-12.068.426-6.415-6.862-11.857-12.869-9.384a8.372,8.372,0,0,0-3.613,12.174c1.607,2.448,4.463,3.7,7.022,4.912a59.663,59.663,0,0,0,53.774-1.34C836.111,528.033,834.31,524.948,832.292,526.055Z" transform="translate(451.354 161.193)" fill="#ff6584"/><path d="M677.056,329.973c16.067,5.527,27.318,21.813,28.273,38.582.485,8.511-1.534,18.35-7.883,24.475a12.3,12.3,0,0,1-11.13,3.659c-3.505-.762-7.163-3.153-7.763-6.95-.579-3.668,1.927-6.7,4.967-8.37a14.584,14.584,0,0,1,11.372-1.079c4.958,1.541,9.156,4.847,13.158,8.037a97.163,97.163,0,0,0,12.422,8.759,76.155,76.155,0,0,0,103.014-26.32q1.885-3.053,3.456-6.28c1.008-2.056-2.071-3.869-3.084-1.8A72.664,72.664,0,0,1,717.776,391.22c-8.313-5.571-16.284-15.141-27.1-15.21-7.962-.05-17.538,5.968-15.5,15.027.928,4.121,4.411,7.089,8.228,8.517a14.975,14.975,0,0,0,12.626-1.036c8.432-4.735,12.114-15.245,12.814-24.378,1.375-17.945-8.771-36.559-24.71-44.973a43.324,43.324,0,0,0-6.133-2.637c-2.178-.749-3.114,2.7-.95,3.444Z" transform="translate(445.245 125.688)" fill="#e6e6e6"/><ellipse cx="9.494" cy="6.605" rx="9.494" ry="6.605" transform="translate(785.842 510.004) rotate(-49)" fill="#6c63ff"/><ellipse cx="9.494" cy="6.605" rx="9.494" ry="6.605" transform="translate(754.895 594.688) rotate(-49)" fill="#090814"/><ellipse cx="4.174" cy="6" rx="4.174" ry="6" transform="translate(772.872 653.628) rotate(-41)" fill="#6c63ff"/><ellipse cx="4.174" cy="6" rx="4.174" ry="6" transform="translate(750.573 564.667) rotate(-41)" fill="#ff6584"/><ellipse cx="4.174" cy="6" rx="4.174" ry="6" transform="translate(764.214 516.706) rotate(-41)" fill="#d6d6e3"/><ellipse cx="4.174" cy="6" rx="4.174" ry="6" transform="translate(813.36 574.026) rotate(-41)" fill="#6c63ff"/><ellipse cx="4.174" cy="6" rx="4.174" ry="6" transform="translate(815.809 538.325) rotate(104)" fill="#6c63ff"/><ellipse cx="9.494" cy="6.605" rx="9.494" ry="6.605" transform="translate(700.995 456.559) rotate(-49)" fill="#6c63ff"/><ellipse cx="9.494" cy="6.605" rx="9.494" ry="6.605" transform="translate(670.049 541.242) rotate(-49)" fill="#d6d6e3"/><ellipse cx="4.174" cy="6" rx="4.174" ry="6" transform="translate(688.15 599.981) rotate(-41)" fill="#6c63ff"/><ellipse cx="4.174" cy="6" rx="4.174" ry="6" transform="translate(665.851 511.019) rotate(-41)" fill="#ff6584"/><ellipse cx="4.174" cy="6" rx="4.174" ry="6" transform="translate(679.493 463.057) rotate(-41)" fill="#3f3d56"/></g></svg>